<?xml version="1.0" standalone="no"?><!DOCTYPE svg PUBLIC "-//W3C//DTD SVG 1.1//EN" "http://www.w3.org/Graphics/SVG/1.1/DTD/svg11.dtd"><svg t="1668695753767" class="icon" viewBox="0 0 1024 1024" version="1.1" xmlns="http://www.w3.org/2000/svg" p-id="2240" xmlns:xlink="http://www.w3.org/1999/xlink" width="200" height="200"><path d="M512 67.128889A444.871111 444.871111 0 1 0 956.871111 512 445.44 445.44 0 0 0 512 67.128889zM512 910.222222a398.222222 398.222222 0 1 1 398.222222-398.222222 398.222222 398.222222 0 0 1-398.222222 398.222222z" p-id="2241" data-spm-anchor-id="a313x.7781069.0.i2" class="selected" fill="#7b1fa2"></path><path d="M512 521.671111l6.257778-52.337778a18.204444 18.204444 0 0 0 0-7.964444A32.426667 32.426667 0 0 0 512 455.111111a27.306667 27.306667 0 0 0-18.204444-6.257778H432.355556a17.635556 17.635556 0 0 0-3.982223-19.342222l-9.671111-9.671111a19.911111 19.911111 0 0 0 11.377778-8.533333l71.111111-91.591111a15.36 15.36 0 0 0 0-20.48 21.617778 21.617778 0 0 0-20.48-10.24H325.973333a25.031111 25.031111 0 0 0-17.066666 6.257777 18.204444 18.204444 0 0 0-6.826667 14.222223 18.204444 18.204444 0 0 0 6.826667 14.791111 25.031111 25.031111 0 0 0 17.066666 6.257777h108.088889l-44.373333 56.888889-19.342222-20.48a24.462222 24.462222 0 0 0-15.928889-7.395555 21.617778 21.617778 0 0 0-17.066667 4.551111 23.324444 23.324444 0 0 0-9.102222 13.653333 18.204444 18.204444 0 0 0 5.688889 15.36l50.631111 52.906667H287.288889a26.168889 26.168889 0 0 0-17.635556 5.688889 18.204444 18.204444 0 0 0-6.826666 14.222222 19.342222 19.342222 0 0 0 6.826666 14.791111 26.168889 26.168889 0 0 0 17.635556 5.688889h89.315555v188.302222a46.08 46.08 0 0 1-4.551111 19.342222 52.906667 52.906667 0 0 1-12.515555 15.36 76.8 76.8 0 0 1-18.773334 10.808889 56.888889 56.888889 0 0 1-22.186666 3.982223 26.168889 26.168889 0 0 0-17.635556 5.688888 18.773333 18.773333 0 0 0-6.257778 14.791112 17.635556 17.635556 0 0 0 6.257778 14.222222 26.168889 26.168889 0 0 0 17.635556 5.688889 124.017778 124.017778 0 0 0 40.96-6.826667A106.382222 106.382222 0 0 0 392.533333 739.555556a91.591111 91.591111 0 0 0 22.755556-28.444445 76.8 76.8 0 0 0 8.533333-35.271111v-187.733333h43.235556l-2.844445 29.582222a15.36 15.36 0 0 0 5.12 14.791111 24.462222 24.462222 0 0 0 15.928889 7.395556 25.031111 25.031111 0 0 0 15.36-5.12 22.186667 22.186667 0 0 0 11.377778-13.084445zM746.382222 715.093333c-6.826667-8.533333-14.222222-17.635556-23.324444-27.306666a352.142222 352.142222 0 0 0-29.013334-29.582223 311.182222 311.182222 0 0 0-32.995555-28.444444l-7.395556-3.982222a165.546667 165.546667 0 0 0 9.102223-50.062222V476.16a18.204444 18.204444 0 0 0-6.826667-14.222222 24.462222 24.462222 0 0 0-16.497778-5.688889 25.6 25.6 0 0 0-17.635555 5.688889 18.204444 18.204444 0 0 0-6.826667 14.222222v100.124444a113.777778 113.777778 0 0 1-11.946667 50.631112 199.111111 199.111111 0 0 1-27.875555 44.942222 224.142222 224.142222 0 0 1-34.133334 35.271111 146.204444 146.204444 0 0 1-31.857777 20.48 21.048889 21.048889 0 0 0-11.377778 11.946667 17.635556 17.635556 0 0 0 0 15.928888 22.755556 22.755556 0 0 0 21.048889 10.808889 21.617778 21.617778 0 0 0 10.808889 0 178.631111 178.631111 0 0 0 23.893333-13.653333 284.444444 284.444444 0 0 0 27.875555-21.617778 341.333333 341.333333 0 0 0 27.875556-29.013333 215.04 215.04 0 0 0 25.031111-34.702222 468.195556 468.195556 0 0 1 43.235556 40.96 614.4 614.4 0 0 1 43.235555 50.631111 15.928889 15.928889 0 0 0 8.533334 7.395555 25.6 25.6 0 0 0 11.377777 0 29.013333 29.013333 0 0 0 12.515556-2.844444 21.048889 21.048889 0 0 0 10.808889-12.515556 20.48 20.48 0 0 0-3.413334-15.928889 215.04 215.04 0 0 0-14.222222-19.911111z" p-id="2242" data-spm-anchor-id="a313x.7781069.0.i0" class="selected" fill="#7b1fa2"></path><path d="M542.151111 326.542222h65.422222l-20.48 56.888889H568.888889a43.235556 43.235556 0 0 0-28.444445 14.791111 32.995556 32.995556 0 0 0-11.946666 25.031111v208.213334a19.342222 19.342222 0 0 0 6.826666 14.791111 28.444444 28.444444 0 0 0 34.133334 0 19.342222 19.342222 0 0 0 6.826666-14.791111V426.666667h122.311112v202.524444a19.342222 19.342222 0 0 0 6.826666 14.791111 25.031111 25.031111 0 0 0 17.066667 5.688889 24.462222 24.462222 0 0 0 16.497778-5.688889 18.204444 18.204444 0 0 0 7.395555-14.791111V420.977778a32.995556 32.995556 0 0 0-11.946666-22.755556 43.235556 43.235556 0 0 0-29.013334-10.24h-68.266666l18.773333-56.888889h70.542222a25.031111 25.031111 0 0 0 17.066667-5.688889 19.342222 19.342222 0 0 0 6.826666-14.791111 18.204444 18.204444 0 0 0-6.826666-14.791111 25.031111 25.031111 0 0 0-17.066667-5.688889H542.151111a25.031111 25.031111 0 0 0-17.066667 5.688889 18.204444 18.204444 0 0 0-6.826666 14.791111 19.342222 19.342222 0 0 0 6.826666 14.791111 25.031111 25.031111 0 0 0 17.066667 1.137778z" p-id="2243" data-spm-anchor-id="a313x.7781069.0.i1" class="selected" fill="#7b1fa2"></path></svg>