<?xml version="1.0" standalone="no"?><!DOCTYPE svg PUBLIC "-//W3C//DTD SVG 1.1//EN" "http://www.w3.org/Graphics/SVG/1.1/DTD/svg11.dtd"><svg t="1668666745164" class="icon" viewBox="0 0 1024 1024" version="1.1" xmlns="http://www.w3.org/2000/svg" p-id="4618" xmlns:xlink="http://www.w3.org/1999/xlink" width="200" height="200"><path d="M527.6 560m-450 0a450 450 0 1 0 900 0 450 450 0 1 0-900 0Z" fill="#E0DDFF" opacity=".6" p-id="4619"></path><path d="M343 531.9c-11.7 0-18.2-7.6-19.3-22.9 1.2-15.2 7.6-23.4 19.3-24.6h58c21.1-1.2 31 12.3 29.9 40.4v114.3c-3.5 22.3 13.5 35.8 51 40.4 36.3 7 112.5 9.4 228.5 7 15.2 0 23.4 7 24.6 21.1-1.2 18.7-8.8 28.1-22.9 28.1-110.2 2.3-183.4 0.6-219.7-5.3-38.7-4.7-66.8-17-84.4-36.9-7 2.4-19.3 12.9-36.9 31.6-2.4 2.3-3.5 4.7-3.5 7-12.9 10.5-25.2 11.1-36.9 1.8-10.5-9.4-10.5-21.7 0-36.9 10.5-12.9 26.4-29.3 47.5-49.2v-109c0-4.7-2.4-7-7-7H343z m93.2-107.2c-14.1 14.1-26.4 15.2-36.9 3.5-3.5-1.2-8.2-4.1-14.1-8.8-19.9-15.2-33.4-25.8-40.4-31.6-14.1-9.4-16.4-19.9-7-31.6 8.2-14.1 19.3-17.6 33.4-10.5 23.4 11.7 43.3 26.4 59.8 43.9 12.8 12.8 14.5 24.5 5.2 35.1z m21.1-40.5c-1.2-24.6 11.7-36.9 38.7-36.9h175.8c23.4-1.2 34.6 10.5 33.4 35.2v128.3c0 9.4-2.9 14.7-8.8 15.8 5.9-3.5 14.1-0.6 24.6 8.8 9.4 10.5 7.6 22.3-5.3 35.2-16.4 12.9-29.9 24-40.4 33.4 9.4 5.9 18.7 13.5 28.1 22.9 16.4 11.7 20.5 25.2 12.3 40.4-9.4 15.2-22.9 16.4-40.4 3.5-44.5-34-86.7-62.7-126.6-86.1-15.2-7-19.3-18.2-12.3-33.4 7-14.1 19.9-17.6 38.7-10.5 5.9 2.4 18.7 10 38.7 22.9 4.7 3.5 10.5 6.5 17.6 8.8 4.7-3.5 11.7-9.9 21.1-19.3 9.4-8.2 17-14.6 22.9-19.3H506.5v80.9c0 5.9 3.5 8.8 10.5 8.8 3.5 0 12.3-2.9 26.4-8.8 7-2.3 11.7-4.1 14.1-5.3 14.1-3.5 24 0.6 29.9 12.3 5.9 14.1 1.2 24.6-14.1 31.6-25.8 10.5-50.4 18.8-73.8 24.6-29.3 4.7-43.4-8.8-42.2-40.4V384.2z m196.8 22.9c0-7-3.5-10.5-10.5-10.5H518.8c-7 0-10.5 3.5-10.5 10.5v14.1h145.9v-14.1z m0 68.5v-14.1H508.2v24.6h135.4c7 1.3 10.5-2.2 10.5-10.5z" fill="#7B1FA2" p-id="4620"></path></svg>