<?xml version="1.0" standalone="no"?><!DOCTYPE svg PUBLIC "-//W3C//DTD SVG 1.1//EN" "http://www.w3.org/Graphics/SVG/1.1/DTD/svg11.dtd"><svg t="1668842473701" class="icon" viewBox="0 0 1024 1024" version="1.1" xmlns="http://www.w3.org/2000/svg" p-id="2775" xmlns:xlink="http://www.w3.org/1999/xlink" width="200" height="200"><path d="M617.3 926.1h-207c-171.5 0-310.5-139-310.5-310.5v-207c0-171.5 139-310.5 310.5-310.5h207c171.5 0 310.5 139 310.5 310.5v207c0 171.5-139 310.5-310.5 310.5z" fill="#FFE7F1" p-id="2776"></path><path d="M729.8 463.7l-73.1-91.5c-8.5-10.5-21.2-16.6-34.7-16.5H405.2c-13.4 0-26.1 6.1-34.5 16.5l-73.3 91.5c-18.4 23.1-17 56.2 3.3 77.6l157.1 165.3c14.5 15.4 34.8 24.1 56 24.1 21.5 0.3 42.1-8.4 56.8-24.1l157.1-165.3c19.9-21.7 20.9-54.8 2.1-77.6z" fill="#FE6DA9" p-id="2777"></path><path d="M606.9 466.2c0 51.3-41.7 93.1-93.1 93.1-22.4 0-42.9-8-59-21.2 3.6 0.3 7.3 0.5 11.1 0.5 26.5 0 50.7-9.5 69.5-25.5 15.5-7.1 27-21.9 29.5-39.4 0.4-2.5 0.6-5 0.6-7.6 0-5.9 2.5-11.2 6.4-15 3.7-3.5 8.7-5.7 14.3-5.7 11.5 0.1 20.7 9.3 20.7 20.8z" fill="#FFB5DD" p-id="2778"></path><path d="M535.4 513.2c-18.8 15.9-43.1 25.5-69.5 25.5-3.7 0-7.5-0.2-11.1-0.5h-0.1c-20.8-17.1-34-43.1-34-71.9 0-11.5 9.3-20.7 20.7-20.7 11.5 0 20.7 9.2 20.7 20.7 0 28.5 23.3 51.7 51.7 51.7 7.8 0 15-1.7 21.6-4.8z" fill="#FFFFFF" p-id="2779"></path></svg>