<?xml version="1.0" standalone="no"?><!DOCTYPE svg PUBLIC "-//W3C//DTD SVG 1.1//EN" "http://www.w3.org/Graphics/SVG/1.1/DTD/svg11.dtd"><svg t="1666411896758" class="icon" viewBox="0 0 1135 1024" version="1.1" xmlns="http://www.w3.org/2000/svg" p-id="1806" xmlns:xlink="http://www.w3.org/1999/xlink" width="221.6796875" height="200"><path d="M818.016563 110.517043l-233.323622 47.072051 500.417741 541.328998 49.120768-347.92407L818.016563 110.517043zM662.467482 280.385946l-96.194867-107.447194-144.29225 126.889984 91.078042 111.540326L662.467482 280.385946zM672.700928 711.197798l129.965363 185.218458 261.977395-183.171789-164.759245-179.078554L672.700928 711.197798zM293.038387 213.871002l-161.68919 29.67593 371.475763 611.937075 279.374336 56.281805-303.934669-435.928474L293.038387 213.871002zM179.446682 369.41353l-62.424269-105.400525-84.937933 124.843315 58.330931 100.284006L179.446682 369.41353zM197.867008 673.335501l72.657818 126.889984 75.727872-78.794547-76.751155-125.866701L197.867008 673.335501zM0.36055 580.214579l105.404928 198.521446 148.385587 38.885683-234.346906-409.322496L0.36055 580.214579z" p-id="1807"></path></svg>